# xmcd
#
# Track frame offsets:
# 150
# 19535
# 33795
# 47075
# 64972
# 83127
# 101652
# 122737
# 140795
# 160452
# 176700
# 197602
# 214192
# 229277
# 246002
# 264187
#
# Disc length: 3727 seconds
#
#
# Revision: 1
# Processed by: cddbd v1.5.1PL0 Copyright (c) Steve Scherf et al.
# Submitted via: FreeRIP 2.942 
#
DISCID=df0e8d10
DTITLE=Various  - Country Radio's Most Requested
DYEAR=1900
DGENRE=Country
TTITLE0=Goodbye Earl
TTITLE1=The Way You Love Me-Faith Hill
TTITLE2=Lessons Learned
TTITLE3=I Hope You Dance
TTITLE4=Amazed
TTITLE5=Breathe-Faith Hill
TTITLE6=Love Is The Only House
TTITLE7=Been There
TTITLE8=Cowboy Take Me Away
TTITLE9=Couldn't Last A Moment
TTITLE10=My Best Friend
TTITLE11=That Don't Impress Me Much
TTITLE12=The Best Day
TTITLE13=Buy Me A Rose
TTITLE14=He Didn't Have To Be
TTITLE15=How Do Ya Like Me Now
EXTD=
EXTT0=
EXTT1=
EXTT2=
EXTT3=
EXTT4=
EXTT5=
EXTT6=
EXTT7=
EXTT8=
EXTT9=
EXTT10=
EXTT11=
EXTT12=
EXTT13=
EXTT14=
EXTT15=
PLAYORDER=
